<svg width="256px" height="256px" viewBox="0 0 256 256" version="1.1" xmlns="http://www.w3.org/2000/svg" aria-hidden="true" role="img" focusable="false" preserveAspectRatio="xMidYMid meet"><rect fill="#3100ff" x="0" y="0" width="256" height="256" rx="60"></rect><path d="M178.5,158.375 C178.5,172.415 173.5725,184.3625 163.7175,194.2175 C153.8625,204.0725 141.915,209 127.875,209 C113.835,209 101.8875,204.0725 92.0325,194.2175 C82.1775,184.3625 77.25,172.415 77.25,158.375 L77.25,83.45 C77.25,73.325 80.79375,64.71875 87.88125,57.63125 C94.96875,50.54375 103.575,47 113.7,47 C123.825,47 132.43125,50.54375 139.51875,57.63125 C146.60625,64.71875 150.15,73.325 150.15,83.45 L150.15,154.325 C150.15,160.535 147.99,165.8 143.67,170.12 C139.35,174.44 134.085,176.6 127.875,176.6 C121.665,176.6 116.4,174.44 112.08,170.12 C107.76,165.8 105.6,160.535 105.6,154.325 L105.6,79.4 L121.8,79.4 L121.8,154.325 C121.8,156.08 122.37375,157.53125 123.52125,158.67875 C124.66875,159.82625 126.12,160.4 127.875,160.4 C129.63,160.4 131.08125,159.82625 132.22875,158.67875 C133.37625,157.53125 133.95,156.08 133.95,154.325 L133.95,83.45 C133.815,77.78 131.82375,72.9875 127.97625,69.0725 C124.12875,65.1575 119.37,63.2 113.7,63.2 C108.03,63.2 103.2375,65.1575 99.3225,69.0725 C95.4075,72.9875 93.45,77.78 93.45,83.45 L93.45,158.375 C93.315,167.96 96.6225,176.09375 103.3725,182.77625 C110.1225,189.45875 118.29,192.8 127.875,192.8 C137.325,192.8 145.3575,189.45875 151.9725,182.77625 C158.5875,176.09375 162.03,167.96 162.3,158.375 L162.3,79.4 L178.5,79.4 L178.5,158.375 Z" fill="#FFFFFF" fill-rule="nonzero"></path></svg>