<svg width="512px" height="512px" viewBox="0 0 512 512" version="1.1" xmlns="http://www.w3.org/2000/svg" aria-hidden="true" role="img" focusable="false" preserveAspectRatio="xMidYMid meet"><rect id="background" fill="#3100ff" x="0" y="0" width="512" height="512" rx="120"></rect><path d="M361.125,319.375 C361.125,348.668333 350.844167,373.595833 330.2825,394.1575 C309.720833,414.719167 284.793333,425 255.5,425 C226.206667,425 201.279167,414.719167 180.7175,394.1575 C160.155833,373.595833 149.875,348.668333 149.875,319.375 L149.875,163.05 C149.875,141.925 157.26875,123.96875 172.05625,109.18125 C186.84375,94.39375 204.8,87 225.925,87 C247.05,87 265.00625,94.39375 279.79375,109.18125 C294.58125,123.96875 301.975,141.925 301.975,163.05 L301.975,310.925 C301.975,323.881667 297.468333,334.866667 288.455,343.88 C279.441667,352.893333 268.456667,357.4 255.5,357.4 C242.543333,357.4 231.558333,352.893333 222.545,343.88 C213.531667,334.866667 209.025,323.881667 209.025,310.925 L209.025,154.6 L242.825,154.6 L242.825,310.925 C242.825,314.586667 244.022083,317.614583 246.41625,320.00875 C248.810417,322.402917 251.838333,323.6 255.5,323.6 C259.161667,323.6 262.189583,322.402917 264.58375,320.00875 C266.977917,317.614583 268.175,314.586667 268.175,310.925 L268.175,163.05 C267.893333,151.22 263.73875,141.220833 255.71125,133.0525 C247.68375,124.884167 237.755,120.8 225.925,120.8 C214.095,120.8 204.095833,124.884167 195.9275,133.0525 C187.759167,141.220833 183.675,151.22 183.675,163.05 L183.675,319.375 C183.393333,339.373333 190.294167,356.34375 204.3775,370.28625 C218.460833,384.22875 235.501667,391.2 255.5,391.2 C275.216667,391.2 291.975833,384.22875 305.7775,370.28625 C319.579167,356.34375 326.761667,339.373333 327.325,319.375 L327.325,154.6 L361.125,154.6 L361.125,319.375 Z" id="forground" fill="#FFFFFF" fill-rule="nonzero"></path></svg>