<svg width="384px" height="384px" viewBox="0 0 384 384" version="1.1" xmlns="http://www.w3.org/2000/svg" aria-hidden="true" role="img" focusable="false" preserveAspectRatio="xMidYMid meet"><rect fill="#3100ff" x="0" y="0" width="384" height="384" rx="90"></rect><path d="M271.875,240 C271.875,262.186667 264.088333,281.066667 248.515,296.64 C232.941667,312.213333 214.061667,320 191.875,320 C169.688333,320 150.808333,312.213333 135.235,296.64 C119.661667,281.066667 111.875,262.186667 111.875,240 L111.875,121.6 C111.875,105.6 117.475,92 128.675,80.8 C139.875,69.6 153.475,64 169.475,64 C185.475,64 199.075,69.6 210.275,80.8 C221.475,92 227.075,105.6 227.075,121.6 L227.075,233.6 C227.075,243.413333 223.661667,251.733333 216.835,258.56 C210.008333,265.386667 201.688333,268.8 191.875,268.8 C182.061667,268.8 173.741667,265.386667 166.915,258.56 C160.088333,251.733333 156.675,243.413333 156.675,233.6 L156.675,115.2 L182.275,115.2 L182.275,233.6 C182.275,236.373333 183.181667,238.666667 184.995,240.48 C186.808333,242.293333 189.101667,243.2 191.875,243.2 C194.648333,243.2 196.941667,242.293333 198.755,240.48 C200.568333,238.666667 201.475,236.373333 201.475,233.6 L201.475,121.6 C201.261667,112.64 198.115,105.066667 192.035,98.88 C185.955,92.6933333 178.435,89.6 169.475,89.6 C160.515,89.6 152.941667,92.6933333 146.755,98.88 C140.568333,105.066667 137.475,112.64 137.475,121.6 L137.475,240 C137.261667,255.146667 142.488333,268 153.155,278.56 C163.821667,289.12 176.728333,294.4 191.875,294.4 C206.808333,294.4 219.501667,289.12 229.955,278.56 C240.408333,268 245.848333,255.146667 246.275,240 L246.275,115.2 L271.875,115.2 L271.875,240 Z" fill="#FFFFFF" fill-rule="nonzero"></path></svg>