<svg width="32px" height="32px" viewBox="0 0 32 32" version="1.1" xmlns="http://www.w3.org/2000/svg" aria-hidden="true" role="img" focusable="false" preserveAspectRatio="xMidYMid meet"><rect fill="#3100ff" x="0" y="0" width="32" height="32" rx="10"></rect><path d="M22.125,19.65 C22.125,21.2446667 21.5653333,22.6016667 20.446,23.721 C19.3266667,24.8403333 17.9696667,25.4 16.375,25.4 C14.7803333,25.4 13.4233333,24.8403333 12.304,23.721 C11.1846667,22.6016667 10.625,21.2446667 10.625,19.65 L10.625,11.14 C10.625,9.99 11.0275,9.0125 11.8325,8.2075 C12.6375,7.4025 13.615,7 14.765,7 C15.915,7 16.8925,7.4025 17.6975,8.2075 C18.5025,9.0125 18.905,9.99 18.905,11.14 L18.905,19.19 C18.905,19.8953333 18.6596667,20.4933333 18.169,20.984 C17.6783333,21.4746667 17.0803333,21.72 16.375,21.72 C15.6696667,21.72 15.0716667,21.4746667 14.581,20.984 C14.0903333,20.4933333 13.845,19.8953333 13.845,19.19 L13.845,10.68 L15.685,10.68 L15.685,19.19 C15.685,19.3893333 15.7501667,19.5541667 15.8805,19.6845 C16.0108333,19.8148333 16.1756667,19.88 16.375,19.88 C16.5743333,19.88 16.7391667,19.8148333 16.8695,19.6845 C16.9998333,19.5541667 17.065,19.3893333 17.065,19.19 L17.065,11.14 C17.0496667,10.496 16.8235,9.95166667 16.3865,9.507 C15.9495,9.06233333 15.409,8.84 14.765,8.84 C14.121,8.84 13.5766667,9.06233333 13.132,9.507 C12.6873333,9.95166667 12.465,10.496 12.465,11.14 L12.465,19.65 C12.4496667,20.7386667 12.8253333,21.6625 13.592,22.4215 C14.3586667,23.1805 15.2863333,23.56 16.375,23.56 C17.4483333,23.56 18.3606667,23.1805 19.112,22.4215 C19.8633333,21.6625 20.2543333,20.7386667 20.285,19.65 L20.285,10.68 L22.125,10.68 L22.125,19.65 Z" fill="#FFFFFF" fill-rule="nonzero"></path></svg>