<svg width="192px" height="192px" viewBox="0 0 192 192" version="1.1" xmlns="http://www.w3.org/2000/svg" aria-hidden="true" role="img" focusable="false" preserveAspectRatio="xMidYMid meet"><rect fill="#3100ff" x="0" y="0" width="192" height="192" rx="50"></rect><path d="M135.25,119.625 C135.25,130.545 131.4175,139.8375 123.7525,147.5025 C116.0875,155.1675 106.795,159 95.875,159 C84.955,159 75.6625,155.1675 67.9975,147.5025 C60.3325,139.8375 56.5,130.545 56.5,119.625 L56.5,61.35 C56.5,53.475 59.25625,46.78125 64.76875,41.26875 C70.28125,35.75625 76.975,33 84.85,33 C92.725,33 99.41875,35.75625 104.93125,41.26875 C110.44375,46.78125 113.2,53.475 113.2,61.35 L113.2,116.475 C113.2,121.305 111.52,125.4 108.16,128.76 C104.8,132.12 100.705,133.8 95.875,133.8 C91.045,133.8 86.95,132.12 83.59,128.76 C80.23,125.4 78.55,121.305 78.55,116.475 L78.55,58.2 L91.15,58.2 L91.15,116.475 C91.15,117.84 91.59625,118.96875 92.48875,119.86125 C93.38125,120.75375 94.51,121.2 95.875,121.2 C97.24,121.2 98.36875,120.75375 99.26125,119.86125 C100.15375,118.96875 100.6,117.84 100.6,116.475 L100.6,61.35 C100.495,56.94 98.94625,53.2125 95.95375,50.1675 C92.96125,47.1225 89.26,45.6 84.85,45.6 C80.44,45.6 76.7125,47.1225 73.6675,50.1675 C70.6225,53.2125 69.1,56.94 69.1,61.35 L69.1,119.625 C68.995,127.08 71.5675,133.40625 76.8175,138.60375 C82.0675,143.80125 88.42,146.4 95.875,146.4 C103.225,146.4 109.4725,143.80125 114.6175,138.60375 C119.7625,133.40625 122.44,127.08 122.65,119.625 L122.65,58.2 L135.25,58.2 L135.25,119.625 Z" fill="#FFFFFF" fill-rule="nonzero"></path></svg>